{
	"asset":{
		"generator":"Khronos glTF Blender I/O v4.0.44",
		"version":"2.0"
	},
	"scene":0,
	"scenes":[
		{
			"name":"Scene",
			"nodes":[
				6
			]
		}
	],
	"nodes":[
		{
			"mesh":0,
			"name":"umbrella.006_grey_0",
			"translation":[
				-0.7372486591339111,
				5.285257816314697,
				-0.5946341156959534
			]
		},
		{
			"mesh":1,
			"name":"umbrella.006_red_0",
			"translation":[
				-0.31061795353889465,
				1.4654371738433838,
				-0.7495584487915039
			]
		},
		{
			"mesh":2,
			"name":"umbrella.006_red_0.001",
			"translation":[
				-0.968755304813385,
				6.578807353973389,
				-0.6252545714378357
			]
		},
		{
			"children":[
				0,
				1,
				2
			],
			"name":"umbrella.006"
		},
		{
			"children":[
				3
			],
			"name":"RootNode"
		},
		{
			"children":[
				4
			],
			"name":"3fb2b1be3d314aebba2c5f1c34e57307.fbx"
		},
		{
			"children":[
				5
			],
			"name":"Sketchfab_model.002",
			"scale":[
				0.15097743272781372,
				0.15097743272781372,
				0.15097743272781372
			],
			"translation":[
				0,
				-0.12155037373304367,
				0
			]
		}
	],
	"animations":[
		{
			"channels":[
				{
					"sampler":0,
					"target":{
						"node":2,
						"path":"rotation"
					}
				}
			],
			"name":"umbrella.006_red_0.001Action",
			"samplers":[
				{
					"input":12,
					"interpolation":"LINEAR",
					"output":13
				}
			]
		}
	],
	"materials":[
		{
			"doubleSided":true,
			"name":"grey",
			"pbrMetallicRoughness":{
				"baseColorFactor":[
					0.2721010148525238,
					0.2810089886188507,
					0.24839000403881073,
					1
				],
				"metallicFactor":0
			}
		},
		{
			"doubleSided":true,
			"name":"material",
			"pbrMetallicRoughness":{
				"baseColorFactor":[
					0.8970909714698792,
					0.0632466971874237,
					0.05786890164017677,
					1
				],
				"metallicFactor":0
			}
		}
	],
	"meshes":[
		{
			"name":"umbrella.006_grey_0",
			"primitives":[
				{
					"attributes":{
						"POSITION":0,
						"NORMAL":1,
						"TEXCOORD_0":2
					},
					"indices":3,
					"material":0
				}
			]
		},
		{
			"name":"umbrella.006_red_0",
			"primitives":[
				{
					"attributes":{
						"POSITION":4,
						"NORMAL":5,
						"TEXCOORD_0":6
					},
					"indices":7,
					"material":1
				}
			]
		},
		{
			"name":"umbrella.006_red_0.001",
			"primitives":[
				{
					"attributes":{
						"POSITION":8,
						"NORMAL":9,
						"TEXCOORD_0":10
					},
					"indices":11,
					"material":1
				}
			]
		}
	],
	"accessors":[
		{
			"bufferView":0,
			"componentType":5126,
			"count":961,
			"max":[
				1.1959567070007324,
				3.285914897918701,
				0.28598862886428833
			],
			"min":[
				-0.6271834373474121,
				-5.980230808258057,
				-0.18280267715454102
			],
			"type":"VEC3"
		},
		{
			"bufferView":1,
			"componentType":5126,
			"count":961,
			"type":"VEC3"
		},
		{
			"bufferView":2,
			"componentType":5126,
			"count":961,
			"type":"VEC2"
		},
		{
			"bufferView":3,
			"componentType":5123,
			"count":4320,
			"type":"SCALAR"
		},
		{
			"bufferView":4,
			"componentType":5126,
			"count":2174,
			"max":[
				1.0628876686096191,
				-2.1216373443603516,
				0.5278725624084473
			],
			"min":[
				0.0005717575550079346,
				-4.164263725280762,
				-0.5259246826171875
			],
			"type":"VEC3"
		},
		{
			"bufferView":5,
			"componentType":5126,
			"count":2174,
			"type":"VEC3"
		},
		{
			"bufferView":6,
			"componentType":5126,
			"count":2174,
			"type":"VEC2"
		},
		{
			"bufferView":7,
			"componentType":5123,
			"count":10080,
			"type":"SCALAR"
		},
		{
			"bufferView":8,
			"componentType":5126,
			"count":1552,
			"max":[
				6.141720294952393,
				1.7109074592590332,
				6.024524688720703
			],
			"min":[
				-5.666955471038818,
				-2.587273120880127,
				-5.962650299072266
			],
			"type":"VEC3"
		},
		{
			"bufferView":9,
			"componentType":5126,
			"count":1552,
			"type":"VEC3"
		},
		{
			"bufferView":10,
			"componentType":5126,
			"count":1552,
			"type":"VEC2"
		},
		{
			"bufferView":11,
			"componentType":5123,
			"count":2208,
			"type":"SCALAR"
		},
		{
			"bufferView":12,
			"componentType":5126,
			"count":60,
			"max":[
				2
			],
			"min":[
				0.03333333333333333
			],
			"type":"SCALAR"
		},
		{
			"bufferView":13,
			"componentType":5126,
			"count":60,
			"type":"VEC4"
		}
	],
	"bufferViews":[
		{
			"buffer":0,
			"byteLength":11532,
			"byteOffset":0,
			"target":34962
		},
		{
			"buffer":0,
			"byteLength":11532,
			"byteOffset":11532,
			"target":34962
		},
		{
			"buffer":0,
			"byteLength":7688,
			"byteOffset":23064,
			"target":34962
		},
		{
			"buffer":0,
			"byteLength":8640,
			"byteOffset":30752,
			"target":34963
		},
		{
			"buffer":0,
			"byteLength":26088,
			"byteOffset":39392,
			"target":34962
		},
		{
			"buffer":0,
			"byteLength":26088,
			"byteOffset":65480,
			"target":34962
		},
		{
			"buffer":0,
			"byteLength":17392,
			"byteOffset":91568,
			"target":34962
		},
		{
			"buffer":0,
			"byteLength":20160,
			"byteOffset":108960,
			"target":34963
		},
		{
			"buffer":0,
			"byteLength":18624,
			"byteOffset":129120,
			"target":34962
		},
		{
			"buffer":0,
			"byteLength":18624,
			"byteOffset":147744,
			"target":34962
		},
		{
			"buffer":0,
			"byteLength":12416,
			"byteOffset":166368,
			"target":34962
		},
		{
			"buffer":0,
			"byteLength":4416,
			"byteOffset":178784,
			"target":34963
		},
		{
			"buffer":0,
			"byteLength":240,
			"byteOffset":183200
		},
		{
			"buffer":0,
			"byteLength":960,
			"byteOffset":183440
		}
	],
	"buffers":[
		{
			"byteLength":184400,
			"uri":"scene.bin"
		}
	]
}
