{
	"asset":{
		"generator":"Khronos glTF Blender I/O v4.0.44",
		"version":"2.0"
	},
	"extensionsUsed":[
		"KHR_materials_unlit"
	],
	"scene":0,
	"scenes":[
		{
			"name":"Scene",
			"nodes":[
				6
			]
		}
	],
	"nodes":[
		{
			"mesh":0,
			"name":"Cylinder_Material.001_0"
		},
		{
			"children":[
				0
			],
			"name":"Cylinder",
			"rotation":[
				-0.7071067690849304,
				0,
				0,
				0.7071068286895752
			],
			"scale":[
				97.04885864257812,
				97.0488510131836,
				97.0488510131836
			]
		},
		{
			"mesh":1,
			"name":"Vert_Sandwich_0"
		},
		{
			"children":[
				2
			],
			"name":"Vert",
			"rotation":[
				-0.6952959299087524,
				0.12869954109191895,
				0.12869955599308014,
				0.6952958703041077
			],
			"scale":[
				120.10639953613281,
				120.10639953613281,
				120.10639190673828
			],
			"translation":[
				-7.578571796417236,
				38.675472259521484,
				-2.2440431118011475
			]
		},
		{
			"children":[
				1,
				3
			],
			"name":"RootNode"
		},
		{
			"children":[
				4
			],
			"name":"3afbdcc071a34fdaa931a937b4f9a7f0.fbx",
			"rotation":[
				0.70710688829422,
				0,
				0,
				0.7071066498756409
			],
			"scale":[
				0.009999999776482582,
				0.010000000707805157,
				0.010000000707805157
			]
		},
		{
			"children":[
				5
			],
			"name":"Sketchfab_model",
			"rotation":[
				-0.70710688829422,
				0,
				0,
				0.7071066498756409
			]
		}
	],
	"animations":[
		{
			"channels":[
				{
					"sampler":0,
					"target":{
						"node":2,
						"path":"rotation"
					}
				}
			],
			"name":"Vert_Sandwich_0Action",
			"samplers":[
				{
					"input":8,
					"interpolation":"LINEAR",
					"output":9
				}
			]
		}
	],
	"materials":[
		{
			"doubleSided":true,
			"extensions":{
				"KHR_materials_unlit":{}
			},
			"name":"Material.004",
			"pbrMetallicRoughness":{
				"baseColorTexture":{
					"index":0
				},
				"metallicFactor":0,
				"roughnessFactor":0.9
			}
		},
		{
			"doubleSided":true,
			"extensions":{
				"KHR_materials_unlit":{}
			},
			"name":"Sandwich.001",
			"pbrMetallicRoughness":{
				"baseColorTexture":{
					"index":1
				},
				"metallicFactor":0,
				"roughnessFactor":0.9
			}
		}
	],
	"meshes":[
		{
			"name":"Cylinder_Material.001_0",
			"primitives":[
				{
					"attributes":{
						"POSITION":0,
						"NORMAL":1,
						"TEXCOORD_0":2
					},
					"indices":3,
					"material":0
				}
			]
		},
		{
			"name":"Vert_Sandwich_0",
			"primitives":[
				{
					"attributes":{
						"POSITION":4,
						"NORMAL":5,
						"TEXCOORD_0":6
					},
					"indices":7,
					"material":1
				}
			]
		}
	],
	"textures":[
		{
			"sampler":0,
			"source":0
		},
		{
			"sampler":0,
			"source":1
		}
	],
	"images":[
		{
			"mimeType":"image/png",
			"name":"Image",
			"uri":"textures/Image.png"
		},
		{
			"mimeType":"image/png",
			"name":"Image",
			"uri":"textures/Image-1.png"
		}
	],
	"accessors":[
		{
			"bufferView":0,
			"componentType":5126,
			"count":328,
			"max":[
				2.1237690448760986,
				2.1214101314544678,
				-0.09120887517929077
			],
			"min":[
				-2.162587881088257,
				-2.164947032928467,
				-0.3499026894569397
			],
			"type":"VEC3"
		},
		{
			"bufferView":1,
			"componentType":5126,
			"count":328,
			"type":"VEC3"
		},
		{
			"bufferView":2,
			"componentType":5126,
			"count":328,
			"type":"VEC2"
		},
		{
			"bufferView":3,
			"componentType":5123,
			"count":1140,
			"type":"SCALAR"
		},
		{
			"bufferView":4,
			"componentType":5126,
			"count":1467,
			"max":[
				1.2916812896728516,
				1.2379974126815796,
				0.48159289360046387
			],
			"min":[
				-1.3283679485321045,
				-1.3018683195114136,
				-0.47806376218795776
			],
			"type":"VEC3"
		},
		{
			"bufferView":5,
			"componentType":5126,
			"count":1467,
			"type":"VEC3"
		},
		{
			"bufferView":6,
			"componentType":5126,
			"count":1467,
			"type":"VEC2"
		},
		{
			"bufferView":7,
			"componentType":5123,
			"count":6054,
			"type":"SCALAR"
		},
		{
			"bufferView":8,
			"componentType":5126,
			"count":60,
			"max":[
				2
			],
			"min":[
				0.03333333333333333
			],
			"type":"SCALAR"
		},
		{
			"bufferView":9,
			"componentType":5126,
			"count":60,
			"type":"VEC4"
		}
	],
	"bufferViews":[
		{
			"buffer":0,
			"byteLength":3936,
			"byteOffset":0,
			"target":34962
		},
		{
			"buffer":0,
			"byteLength":3936,
			"byteOffset":3936,
			"target":34962
		},
		{
			"buffer":0,
			"byteLength":2624,
			"byteOffset":7872,
			"target":34962
		},
		{
			"buffer":0,
			"byteLength":2280,
			"byteOffset":10496,
			"target":34963
		},
		{
			"buffer":0,
			"byteLength":17604,
			"byteOffset":12776,
			"target":34962
		},
		{
			"buffer":0,
			"byteLength":17604,
			"byteOffset":30380,
			"target":34962
		},
		{
			"buffer":0,
			"byteLength":11736,
			"byteOffset":47984,
			"target":34962
		},
		{
			"buffer":0,
			"byteLength":12108,
			"byteOffset":59720,
			"target":34963
		},
		{
			"buffer":0,
			"byteLength":240,
			"byteOffset":71828
		},
		{
			"buffer":0,
			"byteLength":960,
			"byteOffset":72068
		}
	],
	"samplers":[
		{
			"magFilter":9729,
			"minFilter":9987
		}
	],
	"buffers":[
		{
			"byteLength":73028,
			"uri":"scene.bin"
		}
	]
}
